<?xml version="1.0" standalone="no"?>
<!DOCTYPE svg PUBLIC "-//W3C//DTD SVG 20010904//EN"
 "http://www.w3.org/TR/2001/REC-SVG-20010904/DTD/svg10.dtd">
<svg version="1.0" xmlns="http://www.w3.org/2000/svg"
 width="563.000000pt" height="443.000000pt" viewBox="0 0 563.000000 443.000000"
 preserveAspectRatio="xMidYMid meet">

<g transform="translate(0.000000,443.000000) scale(0.100000,-0.100000)"
fill="#000000" stroke="none">
<path d="M2969 3223 c-13 -3 -17 -31 -22 -185 -4 -100 -7 -210 -7 -246 l0 -65
51 6 c29 4 53 8 55 10 2 2 -1 67 -7 145 -6 78 -9 151 -7 161 2 13 54 -72 142
-230 l140 -251 55 7 c31 4 57 8 58 9 2 1 7 96 13 212 5 115 12 251 16 302 l6
92 -80 0 -80 0 4 -225 c3 -124 1 -225 -3 -225 -5 0 -69 111 -143 245 -139 252
-139 252 -191 238z"/>
<path d="M1101 3168 c-5 -13 -61 -144 -125 -292 -64 -148 -113 -272 -110 -275
5 -5 114 -41 126 -41 3 0 9 15 13 33 4 17 11 49 16 70 l10 37 119 0 118 0 10
-32 c6 -18 13 -45 16 -60 7 -29 25 -34 72 -20 21 7 19 15 -71 302 l-92 295
-47 3 c-40 3 -47 0 -55 -20z m92 -246 c13 -62 21 -114 19 -117 -9 -9 -111 -5
-116 4 -5 7 35 152 59 220 9 23 13 10 38 -107z"/>
<path d="M1545 3183 c-16 -2 -47 -9 -68 -14 -36 -9 -37 -11 -32 -47 2 -20 9
-138 15 -262 15 -305 12 -290 60 -290 l40 0 0 78 c0 47 5 83 12 90 7 7 33 12
58 12 57 0 145 25 184 53 42 30 66 90 66 167 0 171 -114 243 -335 213z m210
-168 c35 -34 35 -106 1 -140 -28 -27 -83 -45 -145 -45 l-43 0 4 93 c2 50 7 98
11 105 5 8 33 12 78 12 61 0 73 -3 94 -25z"/>
<path d="M2060 3184 c-14 -3 -42 -9 -62 -15 l-38 -10 0 -294 0 -295 75 0 75 0
-5 28 c-14 78 -21 142 -17 147 3 3 29 5 58 5 l52 0 33 -90 c17 -49 36 -90 41
-90 12 0 128 63 128 70 0 3 -25 33 -55 67 -30 33 -55 64 -55 67 0 3 15 12 33
20 119 49 141 244 39 340 -48 44 -185 67 -302 50z m133 -105 c97 -27 102 -175
7 -224 -36 -19 -130 -32 -130 -19 0 5 -7 56 -15 114 -8 58 -15 110 -15 117 0
21 93 29 153 12z"/>
<path d="M2673 3183 l-143 -4 0 -42 c0 -66 -19 -466 -25 -524 l-5 -52 320 -3
320 -3 5 35 c3 19 8 48 10 64 l5 29 -87 -6 c-49 -4 -161 -10 -250 -13 l-163
-7 0 55 c0 30 -3 76 -6 102 l-7 46 88 0 87 0 -7 48 c-4 26 -9 49 -11 51 -2 2
-40 0 -84 -5 -92 -11 -85 -18 -94 90 l-5 59 130 -7 130 -7 -3 48 c-3 56 18 51
-205 46z"/>
<path d="M3561 2904 c-7 -154 -14 -290 -17 -303 l-5 -24 153 6 c183 6 249 23
312 78 60 53 88 121 89 218 1 98 -23 171 -73 221 -58 58 -111 72 -291 78
l-155 4 -13 -278z m262 191 c72 -30 107 -100 107 -215 0 -123 -56 -180 -186
-188 l-74 -5 0 89 c0 49 -3 147 -7 218 l-6 129 66 -7 c36 -3 81 -13 100 -21z"/>
<path d="M4345 3162 c-68 -23 -137 -91 -160 -161 -10 -31 -17 -82 -17 -127 1
-177 87 -279 253 -299 96 -12 216 23 266 77 49 53 68 108 71 208 5 122 -18
189 -82 248 -75 69 -215 92 -331 54z m157 -82 c128 -36 157 -251 43 -326 -60
-39 -159 -39 -217 0 -50 33 -72 80 -72 150 1 140 105 215 246 176z"/>
<path d="M1301 2362 c0 -15 6 -63 12 -107 l12 -80 85 3 c47 1 207 9 355 17
149 8 334 17 413 21 l142 7 -36 -99 c-20 -55 -67 -187 -106 -294 -39 -107 -97
-269 -130 -360 -33 -91 -61 -172 -61 -180 -2 -11 32 -21 138 -41 77 -16 140
-27 141 -26 0 1 16 59 34 128 l34 126 80 7 c45 3 122 6 173 6 l91 0 11 -32 c5
-18 15 -53 21 -78 30 -118 42 -150 57 -150 38 0 193 33 193 42 0 7 -210 564
-362 960 l-41 107 -61 5 c-34 3 -142 8 -241 11 -362 10 -802 25 -877 29 l-78
4 1 -26z m1226 -359 c17 -49 52 -146 77 -217 25 -71 46 -133 46 -138 0 -4 -59
-8 -131 -8 l-131 0 4 33 c10 69 91 417 98 417 3 0 20 -39 37 -87z"/>
<path d="M929 2343 l-56 -4 -6 -142 c-4 -78 -7 -330 -7 -559 l0 -418 64 0 64
0 11 78 c6 42 17 129 26 192 8 63 21 167 30 230 8 63 18 140 21 170 11 93 20
92 49 -5 125 -408 174 -567 178 -571 4 -4 198 24 204 30 1 0 29 98 63 216 33
118 63 222 67 230 7 19 18 -31 79 -349 l48 -253 64 5 c35 2 65 6 67 8 6 7 -17
904 -24 909 -3 3 -71 4 -151 2 l-145 -3 -69 -202 c-38 -111 -72 -205 -75 -209
-4 -4 -69 141 -146 322 l-140 330 -80 -2 c-44 -1 -105 -3 -136 -5z"/>
<path d="M4154 2333 l-101 -4 -7 -147 c-4 -81 -11 -223 -16 -317 -27 -488 -32
-606 -29 -609 2 -2 169 -7 370 -11 l366 -7 13 116 c7 64 11 119 8 121 -2 3
-92 -6 -199 -20 -107 -13 -210 -25 -229 -27 l-35 -3 -11 115 c-7 63 -12 139
-13 168 l-1 52 153 0 153 0 -15 89 c-9 49 -19 92 -22 95 -3 3 -70 -4 -148 -15
-79 -11 -145 -19 -147 -16 -5 5 -27 267 -23 271 2 2 113 -1 247 -7 134 -5 246
-7 249 -4 3 3 2 42 -2 86 l-7 81 -227 -2 c-124 -1 -272 -4 -327 -5z"/>
<path d="M3325 2315 c-165 -7 -302 -13 -304 -13 -3 -2 6 -92 15 -148 l6 -31
128 -13 129 -12 5 -42 c3 -22 13 -169 21 -326 9 -157 19 -331 22 -388 l6 -103
71 3 71 3 34 410 c18 226 34 411 36 413 1 1 64 -4 140 -13 77 -8 141 -12 144
-9 6 5 40 228 41 262 0 22 -1 22 -132 20 -73 -1 -268 -7 -433 -13z"/>
</g>
</svg>
